<?xml version="1.0" ?><svg enable-background="new 0 0 40 40" id="Слой_1" version="1.1" viewBox="0 0 40 40" xml:space="preserve" xmlns="http://www.w3.org/2000/svg" xmlns:xlink="http://www.w3.org/1999/xlink"><g><path d="M19.9,26.4c-0.3,0-0.5-0.1-0.7-0.3l-8-8c-0.4-0.4-0.4-1,0-1.4s1-0.4,1.4,0l7.3,7.3l7.3-7.3c0.4-0.4,1-0.4,1.4,0   s0.4,1,0,1.4l-8,8C20.4,26.3,20.1,26.4,19.9,26.4z"/></g><g><path d="M19.9,40c-11,0-20-9-20-20s9-20,20-20c4.5,0,8.7,1.5,12.3,4.2c0.4,0.3,0.5,1,0.2,1.4C32,6,31.4,6.1,31,5.8   C27.8,3.3,24,2,19.9,2c-9.9,0-18,8.1-18,18s8.1,18,18,18s18-8.1,18-18c0-3.2-0.9-6.4-2.5-9.2c-0.3-0.5-0.1-1.1,0.3-1.4   c0.5-0.3,1.1-0.1,1.4,0.3c1.8,3.1,2.8,6.6,2.8,10.2C39.9,31,31,40,19.9,40z"/></g></svg>