<?xml version="1.0" ?><!DOCTYPE svg  PUBLIC '-//W3C//DTD SVG 1.1//EN'  'http://www.w3.org/Graphics/SVG/1.1/DTD/svg11.dtd'><svg enable-background="new 0 0 24 24" height="24px" id="Layer_1" version="1.1" viewBox="0 0 24 24" width="24px" xml:space="preserve" xmlns="http://www.w3.org/2000/svg" xmlns:xlink="http://www.w3.org/1999/xlink"><g><path d="M14.732,16.505c-0.053,0-0.106-0.009-0.158-0.024l-6-2c-0.095-0.029-0.177-0.09-0.236-0.168l-7-9   C1.29,5.25,1.256,5.178,1.242,5.101c-0.021-0.104-0.47-2.566,1.745-4.078c0.798-0.545,1.622-0.82,2.451-0.82   c0.912,0,1.492,0.339,1.556,0.377C7.046,0.611,7.091,0.652,7.128,0.7l7,9c0.052,0.064,0.085,0.143,0.099,0.225l0.979,5.865   c0.03,0.065,0.049,0.142,0.049,0.217c0,0.28-0.266,0.53-0.51,0.5C14.738,16.505,14.734,16.505,14.732,16.505z M9.034,13.578   l5.067,1.688L13.26,10.21L6.404,1.397C6.266,1.334,5.919,1.201,5.438,1.201c-0.624,0-1.259,0.218-1.888,0.646   C2.104,2.835,2.163,4.383,2.209,4.802L9.034,13.578z"/><path d="M3.871,8.255c-0.215,0-0.414-0.14-0.479-0.355C3.15,7.099,3.17,5.262,4.967,4.037c2.17-1.481,4.101-0.675,4.183-0.638   c0.253,0.109,0.37,0.404,0.26,0.657C9.3,4.309,9.006,4.426,8.754,4.317C8.685,4.29,7.226,3.705,5.529,4.862   C3.883,5.985,4.344,7.595,4.349,7.61c0.08,0.267-0.07,0.545-0.335,0.623C3.967,8.248,3.918,8.255,3.871,8.255z"/><path d="M8.731,14.505c-0.046,0-0.092-0.006-0.138-0.021c-0.266-0.074-0.419-0.354-0.344-0.617l1-3.5   c0.062-0.214,0.258-0.362,0.48-0.362h4c0.276,0,0.5,0.225,0.5,0.5s-0.224,0.5-0.5,0.5h-3.623l-0.896,3.138   C9.149,14.361,8.95,14.505,8.731,14.505z"/><path d="M9.731,11.005c-0.154,0-0.307-0.071-0.404-0.206L4.923,4.742C4.76,4.517,4.81,4.206,5.033,4.044   c0.224-0.163,0.535-0.113,0.697,0.11l4.404,6.057c0.163,0.224,0.113,0.536-0.11,0.698C9.937,10.974,9.835,11.005,9.731,11.005z"/><path d="M15.264,16.975c-0.146,0-0.291-0.063-0.391-0.188c-0.172-0.218-0.137-0.53,0.078-0.703   c2.818-2.255,4.588-5.078,4.734-7.552c0.063-1.11-0.227-2.054-0.816-2.651c-1.651-1.672-5.074-1.271-7.626,0.892   c-0.211,0.179-0.527,0.149-0.705-0.061c-0.18-0.211-0.152-0.525,0.058-0.705c2.944-2.493,6.975-2.862,8.984-0.829   c0.793,0.805,1.186,2.017,1.104,3.413c-0.162,2.752-2.072,5.846-5.106,8.274C15.482,16.938,15.373,16.975,15.264,16.975z"/><path d="M8.069,23.797c-2.182,0-3.737-0.773-4.62-1.38c-0.955-0.653-1.533-1.793-1.672-3.292c-0.278-3.014,1.242-7.11,3.462-9.33   c0.194-0.195,0.512-0.195,0.706,0c0.195,0.195,0.195,0.512,0,0.707c-2,1.999-3.422,5.826-3.172,8.531   c0.077,0.832,0.355,1.949,1.241,2.56c1.859,1.275,7.078,3.345,15.364-4.938c2.238-2.238,3.502-5.525,3.382-8.795   c-0.079-2.144-0.78-3.985-1.876-4.932c-1.871-1.614-7.352-1.242-10.845,1.475c-0.219,0.171-0.532,0.13-0.702-0.089   c-0.17-0.218-0.13-0.532,0.087-0.701c3.593-2.793,9.705-3.521,12.113-1.44c1.321,1.142,2.132,3.2,2.223,5.65   c0.13,3.541-1.243,7.108-3.675,9.54C15.038,22.404,10.993,23.796,8.069,23.797z"/><path d="M0.731,16.505c-0.01,0-0.02-0.001-0.029-0.001c-0.275-0.018-0.486-0.252-0.471-0.527c0.012-0.186,0.302-4.563,3.751-7.979   c0.196-0.195,0.514-0.191,0.707,0.004c0.194,0.196,0.192,0.513-0.004,0.707c-3.169,3.136-3.454,7.284-3.457,7.325   C1.215,16.3,0.995,16.505,0.731,16.505z"/></g></svg>