<?xml version="1.0" ?><svg enable-background="new 0 0 40 40" id="Слой_1" version="1.1" viewBox="0 0 40 40" xml:space="preserve" xmlns="http://www.w3.org/2000/svg" xmlns:xlink="http://www.w3.org/1999/xlink"><g><path d="M34.9,21h-30c-0.6,0-1-0.4-1-1s0.4-1,1-1h30c0.6,0,1,0.4,1,1S35.4,21,34.9,21z"/></g><g><path d="M34.6,0H5.2C2.3,0-0.1,2.4-0.1,5.3v29.3c0,2.9,2.4,5.3,5.3,5.3h29.3c2.9,0,5.3-2.4,5.3-5.3V5.3C39.9,2.4,37.5,0,34.6,0z    M37.9,34.7c0,1.8-1.5,3.3-3.3,3.3H20.9v-7h14c0.5,0,1-0.4,1-1c0-0.6-0.5-1-1-1h-14v-4.3c0-0.6-0.5-1-1-1s-1,0.4-1,1V29h-14   c-0.5,0-1,0.4-1,1c0,0.6,0.5,1,1,1h14v7H5.2c-1.8,0-3.3-1.5-3.3-3.3V5.3C1.9,3.5,3.4,2,5.2,2h13.7v7h-14c-0.5,0-1,0.4-1,1   c0,0.6,0.5,1,1,1h14v4.3c0,0.6,0.5,1,1,1s1-0.4,1-1V11h14c0.5,0,1-0.4,1-1c0-0.6-0.5-1-1-1h-14V2h13.7c1.8,0,3.3,1.5,3.3,3.3V34.7z   "/></g></svg>